<svg viewBox="0 0 26 26" width="26" height="26" fill="none" xmlns="http://www.w3.org/2000/svg"><path fill-rule="evenodd" clip-rule="evenodd" d="M13 24.48c6.34 0 11.48-5.14 11.48-11.48 0-6.34-5.14-11.48-11.48-11.48C6.66 1.52 1.52 6.66 1.52 13c0 6.34 5.14 11.48 11.48 11.48zM13 26c7.18 0 13-5.82 13-13S20.18 0 13 0 0 5.82 0 13s5.82 13 13 13z" fill="#000"/><path fill-rule="evenodd" clip-rule="evenodd" d="M7.38 9.084c1.14-1.688 2.054-2.422 3.082-.184.723 1.578.609 1.578-.495 2.569-.76.697.305 1.797 1.218 2.751.914.918 1.98 2.055 2.779 1.358 1.103-.991 1.103-1.1 2.664-.294 2.284 1.174 1.408 1.944-.38 2.935-3.616 1.835-11-5.797-8.869-9.135zm8.372 3.999c-.152.55-1.027.33-.875-.22.343-1.1-.875-2.348-2.017-2.128-.57.147-.761-.734-.19-.844 1.827-.367 3.616 1.468 3.083 3.192zm2.017.624c-.076.55-.99.477-.913-.11.304-2.569-1.98-4.88-4.643-4.807-.61.037-.647-.844-.038-.88 3.197-.11 5.937 2.715 5.594 5.797z" fill="#000"/></svg>