<svg viewBox="0 0 26 26" width="26" height="26" fill="none" xmlns="http://www.w3.org/2000/svg"><path fill-rule="evenodd" clip-rule="evenodd" d="M13 24.48c6.34 0 11.48-5.14 11.48-11.48 0-6.34-5.14-11.48-11.48-11.48C6.66 1.52 1.52 6.66 1.52 13c0 6.34 5.14 11.48 11.48 11.48zM13 26c7.18 0 13-5.82 13-13S20.18 0 13 0 0 5.82 0 13s5.82 13 13 13z" fill="#000"/><path d="M6.613 8.7c-.332 0-.613.264-.613.575v7.475c0 .311.282.575.613.575h12.574c.331 0 .613-.264.613-.575V9.275c0-.311-.282-.575-.613-.575H6.613zm.91.863h10.753l-5.376 4.32-5.376-4.32zm-.603.642l3.234 2.6-3.234 3.033v-5.633zm11.96 0v5.633l-3.234-3.032 3.234-2.601zm-8.026 3.167l1.749 1.401a.484.484 0 00.594 0l1.749-1.401 3.297 3.09H7.557l3.297-3.09z" fill="#000"/></svg>