<svg viewBox="0 0 593 49" width="592" height="49" fill="none" xmlns="http://www.w3.org/2000/svg"><path d="M.7 3h3.7v35H.7V3zM15.438.65c.767 0 1.4.267 1.9.8.5.5.75 1.133.75 1.9 0 .4-.067.833-.2 1.3-.1.433-.25.95-.45 1.55l-2.15 6.9h-2.4l1.75-7.2c-.567-.167-1.017-.467-1.35-.9-.333-.467-.5-1.017-.5-1.65 0-.8.25-1.45.75-1.95s1.133-.75 1.9-.75zM58.434 11.5c3.3 0 5.883.95 7.75 2.85 1.9 1.9 2.85 4.7 2.85 8.4V38h-3.55V23.1c0-2.733-.667-4.817-2-6.25-1.3-1.433-3.15-2.15-5.55-2.15-2.734 0-4.884.85-6.45 2.55-1.567 1.667-2.35 3.983-2.35 6.95V38h-3.55V23.1c0-2.733-.667-4.817-2-6.25-1.3-1.433-3.167-2.15-5.6-2.15-2.7 0-4.85.85-6.45 2.55-1.567 1.667-2.35 3.983-2.35 6.95V38h-3.55V11.7h3.4v4.8c.933-1.6 2.233-2.833 3.9-3.7 1.666-.867 3.583-1.3 5.75-1.3 2.2 0 4.1.467 5.7 1.4 1.633.933 2.85 2.317 3.65 4.15.966-1.733 2.35-3.083 4.15-4.05 1.833-1 3.916-1.5 6.25-1.5zM100.947 11.5c3.433 0 6.067.867 7.9 2.6 1.833 1.7 2.75 4.233 2.75 7.6V38h-3.4v-4.1c-.8 1.367-1.983 2.433-3.55 3.2-1.533.767-3.367 1.15-5.5 1.15-2.933 0-5.267-.7-7-2.1-1.733-1.4-2.6-3.25-2.6-5.55 0-2.233.8-4.033 2.4-5.4 1.633-1.367 4.217-2.05 7.75-2.05h8.35v-1.6c0-2.267-.633-3.983-1.9-5.15-1.267-1.2-3.117-1.8-5.55-1.8-1.667 0-3.267.283-4.8.85-1.533.533-2.85 1.283-3.95 2.25l-1.6-2.65c1.333-1.133 2.933-2 4.8-2.6 1.867-.633 3.833-.95 5.9-.95zm-1.25 23.95c2 0 3.717-.45 5.15-1.35 1.433-.933 2.5-2.267 3.2-4v-4.3h-8.25c-4.5 0-6.75 1.567-6.75 4.7 0 1.533.583 2.75 1.75 3.65 1.167.867 2.8 1.3 4.9 1.3zM141.375 38.25c-2.133 0-4.183-.3-6.15-.9-1.933-.633-3.45-1.417-4.55-2.35l1.6-2.8c1.1.867 2.483 1.583 4.15 2.15 1.667.533 3.4.8 5.2.8 2.4 0 4.167-.367 5.3-1.1 1.167-.767 1.75-1.833 1.75-3.2 0-.967-.317-1.717-.95-2.25-.633-.567-1.433-.983-2.4-1.25-.967-.3-2.25-.583-3.85-.85-2.133-.4-3.85-.8-5.15-1.2a7.95 7.95 0 01-3.35-2.15c-.9-1-1.35-2.383-1.35-4.15 0-2.2.917-4 2.75-5.4 1.833-1.4 4.383-2.1 7.65-2.1 1.7 0 3.4.233 5.1.7 1.7.433 3.1 1.017 4.2 1.75l-1.55 2.85c-2.167-1.5-4.75-2.25-7.75-2.25-2.267 0-3.983.4-5.15 1.2-1.133.8-1.7 1.85-1.7 3.15 0 1 .317 1.8.95 2.4.667.6 1.483 1.05 2.45 1.35.967.267 2.3.55 4 .85 2.1.4 3.783.8 5.05 1.2a7.418 7.418 0 013.25 2.05c.9.967 1.35 2.3 1.35 4 0 2.3-.967 4.133-2.9 5.5-1.9 1.333-4.55 2-7.95 2zM169.538 38.25c-2.533 0-4.817-.567-6.85-1.7a12.766 12.766 0 01-4.8-4.8c-1.167-2.033-1.75-4.333-1.75-6.9s.583-4.867 1.75-6.9a12.407 12.407 0 014.8-4.75c2.033-1.133 4.317-1.7 6.85-1.7 2.533 0 4.817.567 6.85 1.7a12.057 12.057 0 014.75 4.75c1.167 2.033 1.75 4.333 1.75 6.9s-.583 4.867-1.75 6.9a12.4 12.4 0 01-4.75 4.8c-2.033 1.133-4.317 1.7-6.85 1.7zm0-3.15c1.867 0 3.533-.417 5-1.25 1.5-.867 2.667-2.083 3.5-3.65.833-1.567 1.25-3.35 1.25-5.35 0-2-.417-3.783-1.25-5.35-.833-1.567-2-2.767-3.5-3.6-1.467-.867-3.133-1.3-5-1.3s-3.55.433-5.05 1.3c-1.467.833-2.633 2.033-3.5 3.6-.833 1.567-1.25 3.35-1.25 5.35 0 2 .417 3.783 1.25 5.35.867 1.567 2.033 2.783 3.5 3.65 1.5.833 3.183 1.25 5.05 1.25zM198.836 3.65c-1.534 0-2.7.417-3.5 1.25-.767.833-1.15 2.067-1.15 3.7v3.1h8.1v3h-8V38h-3.55V14.7h-4.7v-3h4.7V8.45c0-2.4.683-4.3 2.05-5.7 1.4-1.4 3.366-2.1 5.9-2.1 1 0 1.966.15 2.9.45.933.267 1.716.667 2.35 1.2l-1.2 2.65c-1.034-.867-2.334-1.3-3.9-1.3zM220.929 36.4c-.667.6-1.5 1.067-2.5 1.4-.967.3-1.983.45-3.05.45-2.467 0-4.367-.667-5.7-2-1.333-1.333-2-3.217-2-5.65V14.7h-4.7v-3h4.7V5.95h3.55v5.75h8v3h-8v15.7c0 1.567.383 2.767 1.15 3.6.8.8 1.933 1.2 3.4 1.2.733 0 1.433-.117 2.1-.35.7-.233 1.3-.567 1.8-1l1.25 2.55zM265.503 11.7l-9.95 26.3h-3.35l-8.3-21.55-8.3 21.55h-3.35l-9.9-26.3h3.4l8.25 22.35 8.45-22.35h3.05l8.4 22.35 8.35-22.35h3.25zM279.267 11.5c3.434 0 6.067.867 7.9 2.6 1.834 1.7 2.75 4.233 2.75 7.6V38h-3.4v-4.1c-.8 1.367-1.983 2.433-3.55 3.2-1.533.767-3.366 1.15-5.5 1.15-2.933 0-5.266-.7-7-2.1-1.733-1.4-2.6-3.25-2.6-5.55 0-2.233.8-4.033 2.4-5.4 1.634-1.367 4.217-2.05 7.75-2.05h8.35v-1.6c0-2.267-.633-3.983-1.9-5.15-1.266-1.2-3.116-1.8-5.55-1.8-1.666 0-3.266.283-4.8.85-1.533.533-2.85 1.283-3.95 2.25l-1.6-2.65c1.334-1.133 2.934-2 4.8-2.6 1.867-.633 3.834-.95 5.9-.95zm-1.25 23.95c2 0 3.717-.45 5.15-1.35 1.434-.933 2.5-2.267 3.2-4v-4.3h-8.25c-4.5 0-6.75 1.567-6.75 4.7 0 1.533.584 2.75 1.75 3.65 1.167.867 2.8 1.3 4.9 1.3zM302.959 16.85c.834-1.767 2.067-3.1 3.7-4 1.667-.9 3.717-1.35 6.15-1.35v3.45l-.85-.05c-2.766 0-4.933.85-6.5 2.55-1.566 1.7-2.35 4.083-2.35 7.15V38h-3.55V11.7h3.4v5.15zM341.893 25.95h-22c.2 2.733 1.25 4.95 3.15 6.65 1.9 1.667 4.3 2.5 7.2 2.5 1.633 0 3.133-.283 4.5-.85 1.367-.6 2.55-1.467 3.55-2.6l2 2.3c-1.167 1.4-2.633 2.467-4.4 3.2-1.733.733-3.65 1.1-5.75 1.1-2.7 0-5.1-.567-7.2-1.7-2.067-1.167-3.683-2.767-4.85-4.8-1.167-2.033-1.75-4.333-1.75-6.9s.55-4.867 1.65-6.9c1.133-2.033 2.667-3.617 4.6-4.75 1.967-1.133 4.167-1.7 6.6-1.7s4.617.567 6.55 1.7c1.933 1.133 3.45 2.717 4.55 4.75 1.1 2 1.65 4.3 1.65 6.9l-.05 1.1zm-12.7-11.4c-2.533 0-4.667.817-6.4 2.45-1.7 1.6-2.667 3.7-2.9 6.3h18.65c-.233-2.6-1.217-4.7-2.95-6.3-1.7-1.633-3.833-2.45-6.4-2.45zM385.155 25.95h-22c.2 2.733 1.25 4.95 3.15 6.65 1.9 1.667 4.3 2.5 7.2 2.5 1.633 0 3.133-.283 4.5-.85 1.366-.6 2.55-1.467 3.55-2.6l2 2.3c-1.167 1.4-2.634 2.467-4.4 3.2-1.734.733-3.65 1.1-5.75 1.1-2.7 0-5.1-.567-7.2-1.7-2.067-1.167-3.684-2.767-4.85-4.8-1.167-2.033-1.75-4.333-1.75-6.9s.55-4.867 1.65-6.9c1.133-2.033 2.666-3.617 4.6-4.75 1.966-1.133 4.166-1.7 6.6-1.7 2.433 0 4.616.567 6.55 1.7 1.933 1.133 3.45 2.717 4.55 4.75 1.1 2 1.65 4.3 1.65 6.9l-.05 1.1zm-12.7-11.4c-2.534 0-4.667.817-6.4 2.45-1.7 1.6-2.667 3.7-2.9 6.3h18.65c-.234-2.6-1.217-4.7-2.95-6.3-1.7-1.633-3.834-2.45-6.4-2.45zM405.83 11.5c3.3 0 5.917.967 7.85 2.9 1.967 1.9 2.95 4.683 2.95 8.35V38h-3.55V23.1c0-2.733-.683-4.817-2.05-6.25-1.366-1.433-3.316-2.15-5.85-2.15-2.833 0-5.083.85-6.75 2.55-1.633 1.667-2.45 3.983-2.45 6.95V38h-3.55V11.7h3.4v4.85c.967-1.6 2.3-2.833 4-3.7 1.734-.9 3.734-1.35 6-1.35zM450.716 11.7v23.1c0 4.467-1.1 7.767-3.3 9.9-2.167 2.167-5.45 3.25-9.85 3.25-2.433 0-4.75-.367-6.95-1.1-2.167-.7-3.933-1.683-5.3-2.95l1.8-2.7c1.267 1.133 2.8 2.017 4.6 2.65 1.833.633 3.75.95 5.75.95 3.333 0 5.783-.783 7.35-2.35 1.567-1.533 2.35-3.933 2.35-7.2V31.9a10.66 10.66 0 01-4.35 3.8c-1.767.867-3.733 1.3-5.9 1.3-2.467 0-4.717-.533-6.75-1.6-2-1.1-3.583-2.617-4.75-4.55-1.133-1.967-1.7-4.183-1.7-6.65 0-2.467.567-4.667 1.7-6.6a12.098 12.098 0 014.75-4.5c2-1.067 4.25-1.6 6.75-1.6 2.233 0 4.25.45 6.05 1.35 1.8.9 3.25 2.2 4.35 3.9V11.7h3.4zm-13.45 22.15c1.9 0 3.617-.4 5.15-1.2 1.533-.833 2.717-1.983 3.55-3.45.867-1.467 1.3-3.133 1.3-5s-.433-3.517-1.3-4.95c-.833-1.467-2.017-2.6-3.55-3.4-1.5-.833-3.217-1.25-5.15-1.25-1.9 0-3.617.4-5.15 1.2a8.934 8.934 0 00-3.55 3.4c-.833 1.467-1.25 3.133-1.25 5s.417 3.533 1.25 5a9.29 9.29 0 003.55 3.45c1.533.8 3.25 1.2 5.15 1.2zM460.643 11.7h3.55V38h-3.55V11.7zm1.8-5.75c-.733 0-1.35-.25-1.85-.75s-.75-1.1-.75-1.8c0-.667.25-1.25.75-1.75s1.117-.75 1.85-.75c.734 0 1.35.25 1.85.75.5.467.75 1.033.75 1.7 0 .733-.25 1.35-.75 1.85s-1.116.75-1.85.75zM487.471 11.5c3.3 0 5.917.967 7.85 2.9 1.967 1.9 2.95 4.683 2.95 8.35V38h-3.55V23.1c0-2.733-.683-4.817-2.05-6.25-1.367-1.433-3.317-2.15-5.85-2.15-2.833 0-5.083.85-6.75 2.55-1.633 1.667-2.45 3.983-2.45 6.95V38h-3.55V11.7h3.4v4.85c.967-1.6 2.3-2.833 4-3.7 1.733-.9 3.733-1.35 6-1.35zM530.907 25.95h-22c.2 2.733 1.25 4.95 3.15 6.65 1.9 1.667 4.3 2.5 7.2 2.5 1.633 0 3.133-.283 4.5-.85 1.366-.6 2.55-1.467 3.55-2.6l2 2.3c-1.167 1.4-2.634 2.467-4.4 3.2-1.734.733-3.65 1.1-5.75 1.1-2.7 0-5.1-.567-7.2-1.7-2.067-1.167-3.684-2.767-4.85-4.8-1.167-2.033-1.75-4.333-1.75-6.9s.55-4.867 1.65-6.9c1.133-2.033 2.666-3.617 4.6-4.75 1.966-1.133 4.166-1.7 6.6-1.7 2.433 0 4.616.567 6.55 1.7 1.933 1.133 3.45 2.717 4.55 4.75 1.1 2 1.65 4.3 1.65 6.9l-.05 1.1zm-12.7-11.4c-2.534 0-4.667.817-6.4 2.45-1.7 1.6-2.667 3.7-2.9 6.3h18.65c-.234-2.6-1.217-4.7-2.95-6.3-1.7-1.633-3.834-2.45-6.4-2.45zM561.082 25.95h-22c.2 2.733 1.25 4.95 3.15 6.65 1.9 1.667 4.3 2.5 7.2 2.5 1.634 0 3.134-.283 4.5-.85 1.367-.6 2.55-1.467 3.55-2.6l2 2.3c-1.166 1.4-2.633 2.467-4.4 3.2-1.733.733-3.65 1.1-5.75 1.1-2.7 0-5.1-.567-7.2-1.7-2.066-1.167-3.683-2.767-4.85-4.8-1.166-2.033-1.75-4.333-1.75-6.9s.55-4.867 1.65-6.9c1.134-2.033 2.667-3.617 4.6-4.75 1.967-1.133 4.167-1.7 6.6-1.7 2.434 0 4.617.567 6.55 1.7 1.934 1.133 3.45 2.717 4.55 4.75 1.1 2 1.65 4.3 1.65 6.9l-.05 1.1zm-12.7-11.4c-2.533 0-4.666.817-6.4 2.45-1.7 1.6-2.666 3.7-2.9 6.3h18.65c-.233-2.6-1.216-4.7-2.95-6.3-1.7-1.633-3.833-2.45-6.4-2.45zM571.758 16.85c.834-1.767 2.067-3.1 3.7-4 1.667-.9 3.717-1.35 6.15-1.35v3.45l-.85-.05c-2.766 0-4.933.85-6.5 2.55-1.566 1.7-2.35 4.083-2.35 7.15V38h-3.55V11.7h3.4v5.15zM588.288 38.25c-.733 0-1.366-.267-1.9-.8-.5-.533-.75-1.183-.75-1.95 0-.767.25-1.4.75-1.9.534-.533 1.167-.8 1.9-.8.734 0 1.367.267 1.9.8.534.5.8 1.133.8 1.9 0 .767-.266 1.417-.8 1.95-.533.533-1.166.8-1.9.8z" stroke="#fff"/></svg>