<svg viewBox="0 0 432 39" width="432" height="39" fill="none" xmlns="http://www.w3.org/2000/svg"><path d="M29.87 3v35h-3.65V21.85H4.32V38H.62V3h3.7v15.6h21.9V3h3.65zM40.544 11.7h3.55V38h-3.55V11.7zm1.8-5.75c-.734 0-1.35-.25-1.85-.75s-.75-1.1-.75-1.8c0-.667.25-1.25.75-1.75S41.61.9 42.344.9c.733 0 1.35.25 1.85.75.5.467.75 1.033.75 1.7 0 .733-.25 1.35-.75 1.85s-1.117.75-1.85.75zM67.807 3h3.7v35h-3.7V3zM82.545.65c.767 0 1.4.267 1.9.8.5.5.75 1.133.75 1.9 0 .4-.066.833-.2 1.3-.1.433-.25.95-.45 1.55l-2.15 6.9h-2.4l1.75-7.2c-.566-.167-1.016-.467-1.35-.9-.333-.467-.5-1.017-.5-1.65 0-.8.25-1.45.75-1.95s1.134-.75 1.9-.75zM125.541 11.5c3.3 0 5.883.95 7.75 2.85 1.9 1.9 2.85 4.7 2.85 8.4V38h-3.55V23.1c0-2.733-.667-4.817-2-6.25-1.3-1.433-3.15-2.15-5.55-2.15-2.733 0-4.883.85-6.45 2.55-1.567 1.667-2.35 3.983-2.35 6.95V38h-3.55V23.1c0-2.733-.667-4.817-2-6.25-1.3-1.433-3.167-2.15-5.6-2.15-2.7 0-4.85.85-6.45 2.55-1.567 1.667-2.35 3.983-2.35 6.95V38h-3.55V11.7h3.4v4.8c.933-1.6 2.233-2.833 3.9-3.7 1.667-.867 3.583-1.3 5.75-1.3 2.2 0 4.1.467 5.7 1.4 1.633.933 2.85 2.317 3.65 4.15.967-1.733 2.35-3.083 4.15-4.05 1.833-1 3.917-1.5 6.25-1.5zM188.854 3v35h-3.05l-22.5-28.4V38h-3.7V3h3.05l22.55 28.4V3h3.65zM199.528 11.7h3.55V38h-3.55V11.7zm1.8-5.75c-.733 0-1.35-.25-1.85-.75s-.75-1.1-.75-1.8c0-.667.25-1.25.75-1.75s1.117-.75 1.85-.75c.733 0 1.35.25 1.85.75.5.467.75 1.033.75 1.7 0 .733-.25 1.35-.75 1.85s-1.117.75-1.85.75zM223.856 38.25c-2.6 0-4.933-.567-7-1.7a12.406 12.406 0 01-4.8-4.75c-1.167-2.067-1.75-4.383-1.75-6.95s.583-4.867 1.75-6.9a12.406 12.406 0 014.8-4.75c2.067-1.133 4.4-1.7 7-1.7 2.267 0 4.283.45 6.05 1.35a9.891 9.891 0 014.25 3.85l-2.65 1.8c-.867-1.3-1.967-2.267-3.3-2.9-1.333-.667-2.783-1-4.35-1-1.9 0-3.617.433-5.15 1.3-1.5.833-2.683 2.033-3.55 3.6-.833 1.567-1.25 3.35-1.25 5.35 0 2.033.417 3.833 1.25 5.4a9.446 9.446 0 003.55 3.6c1.533.833 3.25 1.25 5.15 1.25 1.567 0 3.017-.317 4.35-.95 1.333-.633 2.433-1.6 3.3-2.9l2.65 1.8c-1.033 1.7-2.45 3-4.25 3.9-1.8.867-3.817 1.3-6.05 1.3zM250.489 24.8l-6.2 5.7V38h-3.55V.9h3.55v25.15l15.7-14.35h4.4l-11.25 10.75 12.3 15.55h-4.35l-10.6-13.2zM313.854 3v35h-3.65V21.85h-21.9V38h-3.7V3h3.7v15.6h21.9V3h3.65zM335.278 38.25c-2.533 0-4.817-.567-6.85-1.7a12.767 12.767 0 01-4.8-4.8c-1.167-2.033-1.75-4.333-1.75-6.9s.583-4.867 1.75-6.9a12.406 12.406 0 014.8-4.75c2.033-1.133 4.317-1.7 6.85-1.7 2.533 0 4.817.567 6.85 1.7a12.056 12.056 0 014.75 4.75c1.167 2.033 1.75 4.333 1.75 6.9s-.583 4.867-1.75 6.9a12.402 12.402 0 01-4.75 4.8c-2.033 1.133-4.317 1.7-6.85 1.7zm0-3.15c1.867 0 3.533-.417 5-1.25 1.5-.867 2.667-2.083 3.5-3.65.833-1.567 1.25-3.35 1.25-5.35 0-2-.417-3.783-1.25-5.35-.833-1.567-2-2.767-3.5-3.6-1.467-.867-3.133-1.3-5-1.3s-3.55.433-5.05 1.3c-1.467.833-2.633 2.033-3.5 3.6-.833 1.567-1.25 3.35-1.25 5.35 0 2 .417 3.783 1.25 5.35.867 1.567 2.033 2.783 3.5 3.65 1.5.833 3.183 1.25 5.05 1.25zM355.876.9h3.55V38h-3.55V.9zM379.054 24.8l-6.2 5.7V38h-3.55V.9h3.55v25.15l15.7-14.35h4.399l-11.25 10.75L394.004 38h-4.35l-10.6-13.2zM421.159 25.95h-22c.2 2.733 1.25 4.95 3.15 6.65 1.9 1.667 4.3 2.5 7.2 2.5 1.633 0 3.133-.283 4.5-.85 1.366-.6 2.55-1.467 3.55-2.6l2 2.3c-1.167 1.4-2.634 2.467-4.4 3.2-1.734.733-3.65 1.1-5.75 1.1-2.7 0-5.1-.567-7.2-1.7-2.067-1.167-3.684-2.767-4.85-4.8-1.167-2.033-1.75-4.333-1.75-6.9s.55-4.867 1.65-6.9c1.133-2.033 2.666-3.617 4.6-4.75 1.966-1.133 4.166-1.7 6.6-1.7 2.433 0 4.616.567 6.55 1.7 1.933 1.133 3.45 2.717 4.55 4.75 1.1 2 1.65 4.3 1.65 6.9l-.05 1.1zm-12.7-11.4c-2.534 0-4.667.817-6.4 2.45-1.7 1.6-2.667 3.7-2.9 6.3h18.65c-.234-2.6-1.217-4.7-2.95-6.3-1.7-1.633-3.834-2.45-6.4-2.45zM428.784 38.25c-.733 0-1.366-.267-1.9-.8-.5-.533-.75-1.183-.75-1.95 0-.767.25-1.4.75-1.9.534-.533 1.167-.8 1.9-.8.734 0 1.367.267 1.9.8.534.5.8 1.133.8 1.9 0 .767-.266 1.417-.8 1.95-.533.533-1.166.8-1.9.8z" stroke="#fff"/></svg>